<svg width="30" height="30" viewBox="0 0 30 30" fill="none" xmlns="http://www.w3.org/2000/svg">
<path d="M3.11583 22.7275C3.11583 22.7275 11.9242 16.3633 13.625 15.1708C13.8 15.0483 14.0392 15.0775 14.1792 15.2392C14.8667 16.0308 16.8025 18.2608 17.5183 19.0842C17.6683 19.2567 17.9283 19.2767 18.1025 19.1292C18.8358 18.5058 20.6508 16.9658 21.3325 16.3867C21.4858 16.2567 21.71 16.2542 21.8658 16.3817C22.9608 17.2775 27.835 21.4133 27.835 21.4133M28 4.41667C28 4.18667 27.8133 4 27.5833 4C24.5908 4 6.40917 4 3.41667 4C3.18667 4 3 4.18667 3 4.41667C3 4.81667 3 23.495 3 25.8808C3 26.1108 3.18667 26.2975 3.41667 26.2975C6.40917 26.2975 24.5908 26.2975 27.5833 26.2975C27.8133 26.2975 28 26.1108 28 25.8808C28 23.095 28 7.20167 28 4.41667ZM20.515 8.85917C21.8492 8.85917 22.9325 9.94167 22.9325 11.2758C22.9325 12.61 21.8492 13.6925 20.515 13.6925C19.1817 13.6925 18.0983 12.61 18.0983 11.2758C18.0983 9.94167 19.1817 8.85917 20.515 8.85917Z" stroke="black" stroke-miterlimit="1.5" stroke-linecap="round"/>
</svg>
