<svg width="30" height="30" viewBox="0 0 30 30" fill="none" xmlns="http://www.w3.org/2000/svg">
<path fill-rule="evenodd" clip-rule="evenodd" d="M4.6217 4.10106C4.19337 3.90856 3.69171 3.99606 3.35337 4.32105C3.01504 4.64605 2.90837 5.14439 3.08254 5.58022C4.54004 9.21605 6.98503 15.316 6.98503 15.316C6.98503 15.316 4.63087 21.4494 3.23587 25.0819C3.06837 25.5177 3.18087 26.011 3.52004 26.3319C3.85921 26.6519 4.3592 26.736 4.7842 26.5435C10.085 24.151 22.2158 18.6744 27.3225 16.3694C27.735 16.1827 28.0008 15.7719 28 15.3185C27.9992 14.8652 27.7325 14.4544 27.3192 14.2694C22.1917 11.9719 9.98253 6.50188 4.6217 4.10106Z" stroke="black" stroke-miterlimit="1.5" stroke-linecap="round"/>
<path d="M6.98505 15.3162L28 15.3187" stroke="black" stroke-miterlimit="1.5" stroke-linecap="round"/>
</svg>
