<svg width="30" height="30" viewBox="0 0 30 30" fill="none" xmlns="http://www.w3.org/2000/svg">
<path d="M3 7.8H20.5442M20.5442 7.8C20.5725 9.2925 21.7925 10.495 23.2908 10.495C24.79 10.495 26.01 9.2925 26.0383 7.8M20.5442 7.8C20.5442 7.7825 20.5442 7.765 20.5442 7.7475C20.5442 6.23083 21.775 5 23.2908 5C24.8075 5 26.0383 6.23083 26.0383 7.7475C26.0383 7.765 26.0383 7.7825 26.0383 7.8M26.0383 7.8H28M3 15.4325H5.58583M5.58583 15.4325C5.61417 16.9242 6.83417 18.1267 8.3325 18.1267C9.83167 18.1267 11.0517 16.9242 11.08 15.4325M5.58583 15.4325C5.58583 15.4142 5.585 15.3967 5.585 15.3792C5.585 13.8625 6.81667 12.6317 8.3325 12.6317C9.84917 12.6317 11.08 13.8625 11.08 15.3792C11.08 15.3967 11.08 15.4142 11.08 15.4325M11.08 15.4325H28M3 23.0642H15.355M15.355 23.0642C15.3833 24.5558 16.6033 25.7583 18.1017 25.7583C19.6 25.7583 20.82 24.5558 20.8483 23.0642M15.355 23.0642C15.3542 23.0467 15.3542 23.0283 15.3542 23.0108C15.3542 21.495 16.585 20.2633 18.1017 20.2633C19.6183 20.2633 20.8492 21.495 20.8492 23.0108C20.8492 23.0283 20.8492 23.0467 20.8483 23.0642M20.8483 23.0642H28" stroke="#333333" stroke-miterlimit="1.5" stroke-linecap="round"/>
</svg>
